# xmcd
#
# Track frame offsets: 
#        150
#        20642
#        44482
#        57097
#        74652
#        90582
#        102980
#        119595
#        141097
#
# Disc length: 2056 seconds
#
# Revision: 2
# Processed by: cddbd v1.5.2PL0 Copyright (c) Steve Scherf et al.
# Submitted via: ExactAudioCopy v0.95b4
#
DISCID=83080609
DTITLE=Johnny Winter - Johnny Winter
DYEAR=1969
DGENRE=Blues
TTITLE0=I'm Yours and I'm Hers
TTITLE1=Be Careful With a Fool
TTITLE2=Dallas
TTITLE3=Mean Mistreater
TTITLE4=Leland Mississippi Blues
TTITLE5=Good Morning LIttle Schoolgirl
TTITLE6=When You Got a Good Friend
TTITLE7=I'll Drown in My Tears
TTITLE8=Back Door Friend
EXTD=
EXTT0=
EXTT1=
EXTT2=
EXTT3=
EXTT4=
EXTT5=
EXTT6=
EXTT7=
EXTT8=
PLAYORDER=
